<svg width="50" height="50" viewBox="0 0 50 50" fill="none" xmlns="http://www.w3.org/2000/svg">
<rect width="50" height="50" rx="25" fill="#EFEBE3"/>
<path d="M18.3169 17.0358C23.258 17.0358 24.913 19.4 24.913 21.5041C24.913 23.6319 23.258 25.9724 18.3169 25.9724H15.0071V32.7576C15.0071 32.7576 15.0071 33.5851 15.8345 33.5851H13.3521C14.1796 33.5851 14.1796 32.7576 14.1796 32.7576V17.8633C14.1796 17.8633 14.1796 17.0358 13.3521 17.0358H18.3169ZM18.3169 25.736C22.4779 25.736 23.92 23.5373 23.92 21.5041C23.92 19.4946 22.4779 17.2959 18.3169 17.2959H15.0071V25.736H18.3169Z" fill="#8E3F15"/>
<path d="M36.2403 32.7812C36.2403 32.7812 36.8786 33.5851 37.7061 33.5851H35.2237C36.0275 33.5851 35.4128 32.7576 35.4128 32.7576L29.5969 25.1213L27.4219 27.6273V32.7812C27.4219 32.7812 27.4455 33.5851 28.273 33.5851H25.7906C26.6181 33.5851 26.6181 32.7576 26.6181 32.7576V17.8633C26.6181 17.8633 26.6181 17.0358 25.7906 17.0358H28.273C27.4455 17.0358 27.4219 17.8633 27.4219 17.8633V27.3436L35.5783 17.8869C35.5783 17.8869 36.2876 17.0595 35.4601 17.0595H37.3751C36.524 17.0595 35.8147 17.8869 35.8147 17.8869L30.0225 24.6248L36.2403 32.7812Z" fill="#8E3F15"/>
<path d="M24.9387 5.35223C35.5568 5.35223 44.1498 14.1094 44.1498 24.8918C44.1498 35.7288 35.5568 44.4313 24.9387 44.4313C14.3753 44.4313 5.83702 35.7288 5.83702 24.8918C5.83702 14.1094 14.3753 5.35223 24.9387 5.35223ZM24.9387 43.884C34.298 43.884 41.7963 35.4004 41.7963 24.8918C41.7963 14.4378 34.298 5.95429 24.9387 5.95429C15.6342 5.95429 8.08106 14.4378 8.08106 24.8918C8.08106 35.4004 15.6342 43.884 24.9387 43.884Z" fill="#8E3F15"/>
</svg>
