<svg width="1338" height="341" viewBox="0 0 1338 341" fill="none" xmlns="http://www.w3.org/2000/svg">
<path d="M82.676 20.5467C157.156 20.5467 182.101 56.1829 182.101 87.8991C182.101 119.972 157.156 155.251 82.676 155.251H32.7853V257.527C32.7853 257.527 32.7853 270 45.258 270H7.83996C20.3126 270 20.3126 257.527 20.3126 257.527V33.0193C20.3126 33.0193 20.3126 20.5467 7.83996 20.5467H82.676ZM82.676 151.688C145.396 151.688 167.134 118.546 167.134 87.8991C167.134 57.6083 145.396 24.4667 82.676 24.4667H32.7853V151.688H82.676ZM356.509 257.884C356.509 257.884 356.866 270 368.982 270H331.564C344.037 270 344.037 257.527 344.037 257.527V144.204H219.31V257.884C219.666 257.884 219.666 270 232.139 270H194.721C207.194 270 207.194 257.527 207.194 257.527V33.0193C207.194 33.0193 207.194 20.5467 194.721 20.5467H232.139C219.666 20.5467 219.31 33.0193 219.31 33.0193V140.284H344.037V33.0193C344.037 33.0193 344.037 20.5467 331.564 20.5467H368.982C356.866 20.5467 356.509 33.0193 356.509 33.0193V257.884ZM660.194 19.4776C728.972 19.4776 784.92 76.4955 784.92 146.699C784.92 216.902 728.972 273.92 660.194 273.92C632.041 273.92 606.027 264.298 585.358 248.618C564.332 264.298 538.318 273.92 510.522 273.92C441.388 273.92 385.795 216.902 385.795 146.699C385.795 76.4955 441.388 19.4776 510.522 19.4776C538.318 19.4776 564.332 29.0993 585.358 44.7793C606.027 29.0993 632.041 19.4776 660.194 19.4776ZM510.522 270C536.18 270 560.056 260.022 578.943 243.273C552.216 219.753 535.467 185.186 535.467 146.699C535.467 108.212 552.216 73.6446 578.943 50.1247C560.056 33.3757 536.18 23.0412 510.522 23.0412C449.584 23.0412 400.762 78.6337 400.762 146.699C400.762 214.764 449.584 270 510.522 270ZM550.434 146.699C550.434 182.335 563.62 214.408 585.358 236.858C606.74 214.408 620.281 182.335 620.281 146.699C620.281 111.063 606.74 78.99 585.358 56.5392C563.62 78.99 550.434 111.063 550.434 146.699ZM660.194 270C720.775 270 769.953 214.764 769.953 146.699C769.953 78.6337 720.775 23.3976 660.194 23.3976C634.179 23.3976 610.303 33.3757 591.416 50.1247C618.143 73.6446 635.248 108.212 635.248 146.699C635.248 185.186 618.143 219.753 591.416 243.273C610.303 260.022 634.179 270 660.194 270ZM959.162 257.884C959.162 257.884 968.784 270 981.256 270H943.838C955.955 270 946.689 257.527 946.689 257.527L859.024 142.422L826.239 180.197V257.884C826.239 257.884 826.595 270 839.068 270H801.65C814.123 270 814.123 257.527 814.123 257.527V33.0193C814.123 33.0193 814.123 20.5467 801.65 20.5467H839.068C826.595 20.5467 826.239 33.0193 826.239 33.0193V175.92L949.184 33.3757C949.184 33.3757 959.875 20.903 947.402 20.903H976.267C963.438 20.903 952.747 33.3757 952.747 33.3757L865.439 134.939L959.162 257.884ZM1178.22 270H1140.45C1152.92 270 1148.65 257.884 1148.65 257.527L1125.84 195.164H1011.8L989.352 257.527C989.352 257.527 984.72 270 997.192 270H968.683C981.156 270 985.432 257.527 985.432 257.527L1070.6 20.5467H1074.52L1161.12 257.884C1161.12 257.884 1165.75 270 1178.22 270ZM1012.87 191.6H1124.41L1068.46 38.0084L1012.87 191.6ZM1335.7 230.087L1332.85 270H1178.54C1191.02 270 1191.02 257.527 1191.02 257.527V33.3757C1191.02 33.3757 1191.02 20.903 1178.54 20.903H1215.96C1203.49 20.903 1203.49 33.3757 1203.49 33.3757V266.436H1293.29C1333.21 266.436 1335.7 230.087 1335.7 230.087Z" fill="white" fill-opacity="0.3"/>
</svg>
